<?xml version="1.0" encoding="UTF-8"?>
<svg width="602px" height="171px" viewBox="0 0 602 171" version="1.1" xmlns="http://www.w3.org/2000/svg" xmlns:xlink="http://www.w3.org/1999/xlink">
    <title>leadnhadat-logo</title>
    <g id="Page-1" stroke="none" stroke-width="1" fill="none" fill-rule="evenodd">
        <g id="leadnhadat-logo" transform="translate(0.000000, -0.000000)" fill-rule="nonzero">
            <g id="SvgjsG1023" fill="#2C5438">
                <circle id="Oval" cx="85.5" cy="85.5" r="85.5"></circle>
            </g>
            <g id="SvgjsG1025" transform="translate(190.490495, 55.022824)" fill="#2C5438">
                <path d="M3.85551128,60.9771649 C2.94296407,60.9771649 2.15715953,60.6476339 1.49809765,59.9885721 C0.839035774,59.3295102 0.509504836,58.5437057 0.509504836,57.6311584 L0.509504836,4.32319208 C0.509504836,3.41064486 0.839035774,2.62484032 1.49809765,1.96577844 C2.15715953,1.30671657 2.94296407,0.977185628 3.85551128,0.977185628 C4.7680585,0.977185628 5.55386304,1.30671657 6.21292492,1.96577844 C6.87198679,2.62484032 7.20151773,3.41064486 7.20151773,4.32319208 L7.20151773,57.6311584 C7.20151773,58.5437057 6.87198679,59.3295102 6.21292492,59.9885721 C5.55386304,60.6476339 4.7680585,60.9771649 3.85551128,60.9771649 Z M52.2965592,43.1824942 L23.4752764,43.1824942 C23.6780646,44.7541033 24.1470125,46.211644 24.88212,47.5551163 C25.6172275,48.8985886 26.5551267,50.0646211 27.6958072,51.0532139 C28.8364912,52.0418068 30.1292665,52.814937 31.5741329,53.3726048 C33.0189993,53.9302725 34.5525856,54.2091064 36.1748917,54.2091064 C37.138136,54.2091064 38.0126604,54.1330608 38.798465,53.9809696 C39.5842695,53.8288784 40.319377,53.5880673 41.0037874,53.2585364 C41.6881978,52.9290054 42.3726082,52.5234289 43.0570186,52.0418068 C43.7414291,51.5601846 44.4892108,51.0151911 45.3003639,50.4068263 C45.6045463,50.153341 45.921403,49.9378785 46.2509339,49.7604387 C46.5804648,49.582999 47.0240642,49.4942791 47.5817319,49.4942791 C48.5449762,49.4942791 49.3561293,49.8238101 50.0151911,50.4828719 C50.674253,51.1419338 51.003784,51.9277384 51.003784,52.8402856 C51.003784,53.3979533 50.9023898,53.8542269 50.6996016,54.2091064 C50.4968133,54.5639859 50.2686765,54.8935168 50.0151911,55.1976992 C49.2040381,56.1102464 48.2534681,56.9340738 47.1634811,57.6691812 C46.0734942,58.4042887 44.9074616,59.0126535 43.6653835,59.4942757 C42.4233053,59.9758978 41.1558786,60.3434515 39.8631034,60.5969369 C38.5703282,60.8504222 37.3409243,60.9771649 36.1748917,60.9771649 C33.4879472,60.9771649 30.9530938,60.4575199 28.5703316,59.4182301 C26.1875695,58.3789402 24.1089897,56.9720966 22.3345923,55.1976992 C20.560195,53.4233018 19.1533514,51.3573963 18.1140615,48.9999827 C17.0747716,46.6425691 16.5551267,44.12039 16.5551267,41.4334454 C16.5551267,38.7465008 17.0747716,36.2116475 18.1140615,33.8288853 C19.1533514,31.4461231 20.560195,29.3675434 22.3345923,27.593146 C24.1089897,25.8187487 26.1875695,24.411905 28.5703316,23.3726151 C30.9530938,22.3333253 33.4879472,21.8136803 36.1748917,21.8136803 C38.7604422,21.8136803 41.1939014,22.2446054 43.4752695,23.1064555 C45.7566375,23.9683057 47.7845202,25.1977096 49.5589175,26.7946672 C51.3333149,28.3916248 52.7528328,30.2927648 53.8174712,32.4980873 C54.8821096,34.7034097 55.4904744,37.1241947 55.6425656,39.7604422 C55.6932627,40.7743835 55.376406,41.5982109 54.6919956,42.2319242 C54.0075852,42.8656376 53.2091064,43.1824942 52.2965592,43.1824942 L52.2965592,43.1824942 Z M36.1748917,28.5817388 C33.5386442,28.5817388 31.1558821,29.304172 29.0266052,30.7490385 C26.8973284,32.1939049 25.3257193,34.0823706 24.311778,36.4144357 L47.9619599,36.4144357 C46.9987156,34.0316736 45.4397808,32.1305335 43.2851554,30.7110157 C41.1305301,29.2914978 38.7604422,28.5817388 36.1748917,28.5817388 L36.1748917,28.5817388 Z M97.3916006,60.9771649 C96.4283563,60.9771649 95.6172033,60.6476339 94.9581414,59.9885721 C94.2990795,59.3295102 93.9695486,58.5437057 93.9695486,57.6311584 L93.9695486,56.186292 C92.1951512,57.707204 90.2179656,58.8859109 88.0379917,59.7224125 C85.8580178,60.5589141 83.5766498,60.9771649 81.1938876,60.9771649 C78.506943,60.9771649 75.9720896,60.4575199 73.5893275,59.4182301 C71.2065653,58.3789402 69.1279856,56.9720966 67.3535882,55.1976992 C65.5791908,53.4233018 64.1723472,51.3573963 63.1330573,48.9999827 C62.0937675,46.6425691 61.5741225,44.12039 61.5741225,41.4334454 C61.5741225,38.7465008 62.0937675,36.2116475 63.1330573,33.8288853 C64.1723472,31.4461231 65.5791908,29.3675434 67.3535882,27.593146 C69.1279856,25.8187487 71.2065653,24.411905 73.5893275,23.3726151 C75.9720896,22.3333253 78.506943,21.8136803 81.1938876,21.8136803 C83.5766498,21.8136803 85.8580178,22.2319311 88.0379917,23.0684327 C90.2179656,23.9049344 92.1951512,25.0836412 93.9695486,26.6045532 L93.9695486,25.1596868 C93.9695486,24.2471396 94.2990795,23.461335 94.9581414,22.8022731 C95.6172033,22.1432113 96.4283563,21.8136803 97.3916006,21.8136803 C98.3041478,21.8136803 99.0899524,22.1432113 99.7490143,22.8022731 C100.408076,23.461335 100.737607,24.2471396 100.737607,25.1596868 L100.737607,57.6311584 C100.737607,58.5437057 100.408076,59.3295102 99.7490143,59.9885721 C99.0899524,60.6476339 98.3041478,60.9771649 97.3916006,60.9771649 Z M81.1938876,28.5817388 C79.4194902,28.5817388 77.7591613,28.923944 76.2129007,29.6083544 C74.6666402,30.2927648 73.3104936,31.2179863 72.1444611,32.3840189 C70.9784285,33.5500514 70.053207,34.906198 69.3687966,36.4524585 C68.6843862,37.9987191 68.342181,39.659048 68.342181,41.4334454 C68.342181,43.2078428 68.6843862,44.8681717 69.3687966,46.4144323 C70.053207,47.9606928 70.9784285,49.3168394 72.1444611,50.4828719 C73.3104936,51.6489045 74.6666402,52.5614517 76.2129007,53.2205136 C77.7591613,53.8795755 79.4194902,54.2091064 81.1938876,54.2091064 C82.9682849,54.2091064 84.6286139,53.8795755 86.1748745,53.2205136 C87.721135,52.5614517 89.0772816,51.6489045 90.2433141,50.4828719 C91.4093467,49.3168394 92.3218939,47.9606928 92.9809558,46.4144323 C93.6400176,44.8681717 93.9695486,43.2078428 93.9695486,41.4334454 C93.9695486,39.659048 93.6400176,37.9987191 92.9809558,36.4524585 C92.3218939,34.906198 91.4093467,33.5500514 90.2433141,32.3840189 C89.0772816,31.2179863 87.721135,30.2927648 86.1748745,29.6083544 C84.6286139,28.923944 82.9682849,28.5817388 81.1938876,28.5817388 L81.1938876,28.5817388 Z M145.832649,60.9771649 C144.869404,60.9771649 144.058251,60.6476339 143.399189,59.9885721 C142.740127,59.3295102 142.410596,58.5437057 142.410596,57.6311584 L142.410596,56.186292 C140.636199,57.707204 138.659013,58.8859109 136.47904,59.7224125 C134.299066,60.5589141 132.017698,60.9771649 129.634935,60.9771649 C126.947991,60.9771649 124.413138,60.4575199 122.030375,59.4182301 C119.647613,58.3789402 117.569033,56.9720966 115.794636,55.1976992 C114.020239,53.4233018 112.613395,51.3573963 111.574105,48.9999827 C110.534815,46.6425691 110.01517,44.12039 110.01517,41.4334454 C110.01517,38.7465008 110.534815,36.2116475 111.574105,33.8288853 C112.613395,31.4461231 114.020239,29.3675434 115.794636,27.593146 C117.569033,25.8187487 119.647613,24.411905 122.030375,23.3726151 C124.413138,22.3333253 126.947991,21.8136803 129.634935,21.8136803 C132.017698,21.8136803 134.299066,22.2319311 136.47904,23.0684327 C138.659013,23.9049344 140.636199,25.1089897 142.410596,26.6805988 L142.410596,4.32319208 C142.410596,3.41064486 142.740127,2.62484032 143.399189,1.96577844 C144.058251,1.30671657 144.869404,0.977185628 145.832649,0.977185628 C146.745196,0.977185628 147.531,1.30671657 148.190062,1.96577844 C148.849124,2.62484032 149.178655,3.41064486 149.178655,4.32319208 L149.178655,57.6311584 C149.178655,58.5437057 148.849124,59.3295102 148.190062,59.9885721 C147.531,60.6476339 146.745196,60.9771649 145.832649,60.9771649 Z M129.634935,28.5817388 C127.860538,28.5817388 126.200209,28.923944 124.653949,29.6083544 C123.107688,30.2927648 121.751542,31.2179863 120.585509,32.3840189 C119.419476,33.5500514 118.494255,34.906198 117.809845,36.4524585 C117.125434,37.9987191 116.783229,39.659048 116.783229,41.4334454 C116.783229,43.2078428 117.125434,44.8681717 117.809845,46.4144323 C118.494255,47.9606928 119.419476,49.3041651 120.585509,50.4448491 C121.751542,51.5855332 123.107688,52.4980804 124.653949,53.1824908 C126.200209,53.8669012 127.860538,54.2091064 129.634935,54.2091064 C131.358636,54.2091064 133.00629,53.8669012 134.5779,53.1824908 C136.149509,52.4980804 137.505655,51.5855332 138.646339,50.4448491 C139.787023,49.3041651 140.69957,47.9606928 141.383981,46.4144323 C142.068391,44.8681717 142.410596,43.2078428 142.410596,41.4334454 C142.410596,39.659048 142.068391,37.9987191 141.383981,36.4524585 C140.69957,34.906198 139.787023,33.5500514 138.646339,32.3840189 C137.505655,31.2179863 136.149509,30.2927648 134.5779,29.6083544 C133.00629,28.923944 131.358636,28.5817388 129.634935,28.5817388 L129.634935,28.5817388 Z M168.418192,24.0950484 C170.800954,22.5741363 173.361156,21.8136803 176.098798,21.8136803 C178.025286,21.8136803 179.850381,22.1812341 181.574081,22.9163415 C183.297781,23.651449 184.806019,24.6653904 186.098794,25.9581656 C187.39157,27.2509408 188.405511,28.7591786 189.140618,30.4828789 C189.875726,32.2065791 190.24328,34.0316736 190.24328,35.9581621 L190.24328,57.6311584 C190.24328,58.5437057 189.913749,59.3295102 189.254687,59.9885721 C188.595625,60.6476339 187.80982,60.9771649 186.897273,60.9771649 C185.934029,60.9771649 185.122876,60.6476339 184.463814,59.9885721 C183.804752,59.3295102 183.475221,58.5437057 183.475221,57.6311584 L183.475221,35.9581621 C183.475221,34.9442208 183.285107,33.9936508 182.904879,33.1064521 C182.524651,32.2192534 181.992332,31.4334489 181.307921,30.7490385 C180.623511,30.064628 179.837706,29.5323088 178.950508,29.1520808 C178.063309,28.7718528 177.112739,28.5817388 176.098798,28.5817388 C175.084856,28.5817388 174.121612,28.7718528 173.209065,29.1520808 C172.296518,29.5323088 171.510713,30.064628 170.851651,30.7490385 C170.192589,31.4334489 169.672944,32.2192534 169.292716,33.1064521 C168.912488,33.9936508 168.722374,34.9442208 168.722374,35.9581621 C168.722374,36.1102533 168.671677,36.3383901 168.570283,36.6425725 L168.570283,57.6311584 C168.570283,58.5437057 168.240752,59.3295102 167.58169,59.9885721 C166.922629,60.6476339 166.136824,60.9771649 165.224277,60.9771649 C164.261033,60.9771649 163.449879,60.6476339 162.790818,59.9885721 C162.131756,59.3295102 161.802225,58.5437057 161.802225,57.6311584 L161.802225,24.7034132 C161.802225,23.7401689 162.131756,22.9290158 162.790818,22.2699539 C163.449879,21.6108921 164.261033,21.2813611 165.224277,21.2813611 C167.049371,21.2813611 168.11401,22.2192569 168.418192,24.0950484 L168.418192,24.0950484 Z M229.710947,60.9771649 C228.747702,60.9771649 227.936549,60.6476339 227.277487,59.9885721 C226.618425,59.3295102 226.288894,58.5437057 226.288894,57.6311584 L226.288894,37.707211 C226.288894,36.4397843 226.048083,35.2610775 225.566461,34.1710905 C225.084839,33.0811036 224.425777,32.1178593 223.589276,31.2813577 C222.752774,30.444856 221.78953,29.7857942 220.699543,29.304172 C219.609556,28.8225499 218.430849,28.5817388 217.163422,28.5817388 C215.946693,28.5817388 214.78066,28.8225499 213.665325,29.304172 C212.549989,29.7857942 211.586745,30.444856 210.775592,31.2813577 C209.964439,32.1178593 209.318051,33.0811036 208.836429,34.1710905 C208.354807,35.2610775 208.113996,36.4397843 208.113996,37.707211 C208.113996,37.9099992 208.063299,38.1127875 207.961905,38.3155758 L207.961905,57.6311584 C207.961905,58.5437057 207.632374,59.3295102 206.973312,59.9885721 C206.31425,60.6476339 205.528445,60.9771649 204.615898,60.9771649 C203.652654,60.9771649 202.841501,60.6476339 202.182439,59.9885721 C201.523377,59.3295102 201.193846,58.5437057 201.193846,57.6311584 L201.193846,4.32319208 C201.193846,3.41064486 201.523377,2.62484032 202.182439,1.96577844 C202.841501,1.30671657 203.652654,0.977185628 204.615898,0.977185628 C205.528445,0.977185628 206.31425,1.30671657 206.973312,1.96577844 C207.632374,2.62484032 207.961905,3.41064486 207.961905,4.32319208 L207.961905,24.7794588 C209.280028,23.8162145 210.737569,23.081107 212.334527,22.5741363 C213.931484,22.0671657 215.541116,21.8136803 217.163422,21.8136803 C219.343396,21.8136803 221.396627,22.2319311 223.323116,23.0684327 C225.249605,23.9049344 226.935282,25.0456184 228.380148,26.4904848 C229.825015,27.9353512 230.965699,29.6210287 231.802201,31.5475173 C232.638702,33.4740058 233.056953,35.5272371 233.056953,37.707211 L233.056953,57.6311584 C233.056953,58.5437057 232.727422,59.3295102 232.06836,59.9885721 C231.409298,60.6476339 230.623494,60.9771649 229.710947,60.9771649 L229.710947,60.9771649 Z M276.478991,60.9771649 C275.515747,60.9771649 274.704594,60.6476339 274.045532,59.9885721 C273.38647,59.3295102 273.056939,58.5437057 273.056939,57.6311584 L273.056939,56.186292 C271.282542,57.707204 269.305356,58.8859109 267.125382,59.7224125 C264.945408,60.5589141 262.66404,60.9771649 260.281278,60.9771649 C257.594334,60.9771649 255.05948,60.4575199 252.676718,59.4182301 C250.293956,58.3789402 248.215376,56.9720966 246.440979,55.1976992 C244.666581,53.4233018 243.259738,51.3573963 242.220448,48.9999827 C241.181158,46.6425691 240.661513,44.12039 240.661513,41.4334454 C240.661513,38.7465008 241.181158,36.2116475 242.220448,33.8288853 C243.259738,31.4461231 244.666581,29.3675434 246.440979,27.593146 C248.215376,25.8187487 250.293956,24.411905 252.676718,23.3726151 C255.05948,22.3333253 257.594334,21.8136803 260.281278,21.8136803 C262.66404,21.8136803 264.945408,22.2319311 267.125382,23.0684327 C269.305356,23.9049344 271.282542,25.0836412 273.056939,26.6045532 L273.056939,25.1596868 C273.056939,24.2471396 273.38647,23.461335 274.045532,22.8022731 C274.704594,22.1432113 275.515747,21.8136803 276.478991,21.8136803 C277.391538,21.8136803 278.177343,22.1432113 278.836405,22.8022731 C279.495467,23.461335 279.824998,24.2471396 279.824998,25.1596868 L279.824998,57.6311584 C279.824998,58.5437057 279.495467,59.3295102 278.836405,59.9885721 C278.177343,60.6476339 277.391538,60.9771649 276.478991,60.9771649 Z M260.281278,28.5817388 C258.506881,28.5817388 256.846552,28.923944 255.300291,29.6083544 C253.754031,30.2927648 252.397884,31.2179863 251.231852,32.3840189 C250.065819,33.5500514 249.140598,34.906198 248.456187,36.4524585 C247.771777,37.9987191 247.429572,39.659048 247.429572,41.4334454 C247.429572,43.2078428 247.771777,44.8681717 248.456187,46.4144323 C249.140598,47.9606928 250.065819,49.3168394 251.231852,50.4828719 C252.397884,51.6489045 253.754031,52.5614517 255.300291,53.2205136 C256.846552,53.8795755 258.506881,54.2091064 260.281278,54.2091064 C262.055676,54.2091064 263.716004,53.8795755 265.262265,53.2205136 C266.808526,52.5614517 268.164672,51.6489045 269.330705,50.4828719 C270.496737,49.3168394 271.409284,47.9606928 272.068346,46.4144323 C272.727408,44.8681717 273.056939,43.2078428 273.056939,41.4334454 C273.056939,39.659048 272.727408,37.9987191 272.068346,36.4524585 C271.409284,34.906198 270.496737,33.5500514 269.330705,32.3840189 C268.164672,31.2179863 266.808526,30.2927648 265.262265,29.6083544 C263.716004,28.923944 262.055676,28.5817388 260.281278,28.5817388 L260.281278,28.5817388 Z M324.920039,60.9771649 C323.956795,60.9771649 323.145642,60.6476339 322.48658,59.9885721 C321.827518,59.3295102 321.497987,58.5437057 321.497987,57.6311584 L321.497987,56.186292 C319.72359,57.707204 317.746404,58.8859109 315.56643,59.7224125 C313.386456,60.5589141 311.105088,60.9771649 308.722326,60.9771649 C306.035381,60.9771649 303.500528,60.4575199 301.117766,59.4182301 C298.735004,58.3789402 296.656424,56.9720966 294.882027,55.1976992 C293.107629,53.4233018 291.700786,51.3573963 290.661496,48.9999827 C289.622206,46.6425691 289.102561,44.12039 289.102561,41.4334454 C289.102561,38.7465008 289.622206,36.2116475 290.661496,33.8288853 C291.700786,31.4461231 293.107629,29.3675434 294.882027,27.593146 C296.656424,25.8187487 298.735004,24.411905 301.117766,23.3726151 C303.500528,22.3333253 306.035381,21.8136803 308.722326,21.8136803 C311.105088,21.8136803 313.386456,22.2319311 315.56643,23.0684327 C317.746404,23.9049344 319.72359,25.1089897 321.497987,26.6805988 L321.497987,4.32319208 C321.497987,3.41064486 321.827518,2.62484032 322.48658,1.96577844 C323.145642,1.30671657 323.956795,0.977185628 324.920039,0.977185628 C325.832586,0.977185628 326.618391,1.30671657 327.277453,1.96577844 C327.936515,2.62484032 328.266046,3.41064486 328.266046,4.32319208 L328.266046,57.6311584 C328.266046,58.5437057 327.936515,59.3295102 327.277453,59.9885721 C326.618391,60.6476339 325.832586,60.9771649 324.920039,60.9771649 Z M308.722326,28.5817388 C306.947929,28.5817388 305.2876,28.923944 303.741339,29.6083544 C302.195079,30.2927648 300.838932,31.2179863 299.6729,32.3840189 C298.506867,33.5500514 297.581645,34.906198 296.897235,36.4524585 C296.212825,37.9987191 295.870619,39.659048 295.870619,41.4334454 C295.870619,43.2078428 296.212825,44.8681717 296.897235,46.4144323 C297.581645,47.9606928 298.506867,49.3041651 299.6729,50.4448491 C300.838932,51.5855332 302.195079,52.4980804 303.741339,53.1824908 C305.2876,53.8669012 306.947929,54.2091064 308.722326,54.2091064 C310.446026,54.2091064 312.093681,53.8669012 313.66529,53.1824908 C315.236899,52.4980804 316.593046,51.5855332 317.73373,50.4448491 C318.874414,49.3041651 319.786961,47.9606928 320.471371,46.4144323 C321.155782,44.8681717 321.497987,43.2078428 321.497987,41.4334454 C321.497987,39.659048 321.155782,37.9987191 320.471371,36.4524585 C319.786961,34.906198 318.874414,33.5500514 317.73373,32.3840189 C316.593046,31.2179863 315.236899,30.2927648 313.66529,29.6083544 C312.093681,28.923944 310.446026,28.5817388 308.722326,28.5817388 L308.722326,28.5817388 Z M373.361087,60.9771649 C372.397843,60.9771649 371.58669,60.6476339 370.927628,59.9885721 C370.268566,59.3295102 369.939035,58.5437057 369.939035,57.6311584 L369.939035,56.186292 C368.164638,57.707204 366.187452,58.8859109 364.007478,59.7224125 C361.827504,60.5589141 359.546136,60.9771649 357.163374,60.9771649 C354.476429,60.9771649 351.941576,60.4575199 349.558814,59.4182301 C347.176052,58.3789402 345.097472,56.9720966 343.323075,55.1976992 C341.548677,53.4233018 340.141834,51.3573963 339.102544,48.9999827 C338.063254,46.6425691 337.543609,44.12039 337.543609,41.4334454 C337.543609,38.7465008 338.063254,36.2116475 339.102544,33.8288853 C340.141834,31.4461231 341.548677,29.3675434 343.323075,27.593146 C345.097472,25.8187487 347.176052,24.411905 349.558814,23.3726151 C351.941576,22.3333253 354.476429,21.8136803 357.163374,21.8136803 C359.546136,21.8136803 361.827504,22.2319311 364.007478,23.0684327 C366.187452,23.9049344 368.164638,25.0836412 369.939035,26.6045532 L369.939035,25.1596868 C369.939035,24.2471396 370.268566,23.461335 370.927628,22.8022731 C371.58669,22.1432113 372.397843,21.8136803 373.361087,21.8136803 C374.273634,21.8136803 375.059439,22.1432113 375.718501,22.8022731 C376.377562,23.461335 376.707093,24.2471396 376.707093,25.1596868 L376.707093,57.6311584 C376.707093,58.5437057 376.377562,59.3295102 375.718501,59.9885721 C375.059439,60.6476339 374.273634,60.9771649 373.361087,60.9771649 Z M357.163374,28.5817388 C355.388977,28.5817388 353.728648,28.923944 352.182387,29.6083544 C350.636127,30.2927648 349.27998,31.2179863 348.113947,32.3840189 C346.947915,33.5500514 346.022693,34.906198 345.338283,36.4524585 C344.653873,37.9987191 344.311667,39.659048 344.311667,41.4334454 C344.311667,43.2078428 344.653873,44.8681717 345.338283,46.4144323 C346.022693,47.9606928 346.947915,49.3168394 348.113947,50.4828719 C349.27998,51.6489045 350.636127,52.5614517 352.182387,53.2205136 C353.728648,53.8795755 355.388977,54.2091064 357.163374,54.2091064 C358.937771,54.2091064 360.5981,53.8795755 362.144361,53.2205136 C363.690621,52.5614517 365.046768,51.6489045 366.2128,50.4828719 C367.378833,49.3168394 368.29138,47.9606928 368.950442,46.4144323 C369.609504,44.8681717 369.939035,43.2078428 369.939035,41.4334454 C369.939035,39.659048 369.609504,37.9987191 368.950442,36.4524585 C368.29138,34.906198 367.378833,33.5500514 366.2128,32.3840189 C365.046768,31.2179863 363.690621,30.2927648 362.144361,29.6083544 C360.5981,28.923944 358.937771,28.5817388 357.163374,28.5817388 L357.163374,28.5817388 Z M407.049288,28.5817388 L400.889595,28.5817388 L400.889595,57.6311584 C400.889595,58.5437057 400.560064,59.3295102 399.901002,59.9885721 C399.24194,60.6476339 398.430787,60.9771649 397.467543,60.9771649 C396.554995,60.9771649 395.769191,60.6476339 395.110129,59.9885721 C394.451067,59.3295102 394.121536,58.5437057 394.121536,57.6311584 L394.121536,28.5817388 L387.885797,28.5817388 C386.97325,28.5817388 386.187445,28.2522079 385.528383,27.593146 C384.869321,26.9340841 384.53979,26.1482796 384.53979,25.2357324 C384.53979,24.2724881 384.869321,23.461335 385.528383,22.8022731 C386.187445,22.1432113 386.97325,21.8136803 387.885797,21.8136803 L394.121536,21.8136803 L394.121536,10.634977 C394.121536,9.67173269 394.451067,8.87325387 395.110129,8.23954053 C395.769191,7.60582719 396.554995,7.28897052 397.467543,7.28897052 C398.430787,7.28897052 399.24194,7.60582719 399.901002,8.23954053 C400.560064,8.87325387 400.889595,9.67173269 400.889595,10.634977 L400.889595,21.8136803 L407.049288,21.8136803 C408.012533,21.8136803 408.823686,22.1432113 409.482747,22.8022731 C410.141809,23.461335 410.47134,24.2724881 410.47134,25.2357324 C410.47134,26.1482796 410.141809,26.9340841 409.482747,27.593146 C408.823686,28.2522079 408.012533,28.5817388 407.049288,28.5817388 Z" id="Shape"></path>
            </g>
            <g id="Group" transform="translate(50.922731, 43.000000)" fill="#FFFFFF">
                <path d="M35.0772693,0 C15.7462189,0 0.0772692659,15.6702733 0.0772692659,35 C0.0772692659,61.5811231 35.0772693,84.7149126 35.0772693,84.7149126 C35.0772693,84.7149126 70.0772693,61.5811231 70.0772693,35 C70.0772693,15.6702733 54.408318,0 35.0772693,0 Z M35.0772685,62.2027518 C20.0536082,62.2027518 7.87583953,50.0249832 7.87583953,34.9999992 C7.87583953,19.9763389 20.0537737,7.79724659 35.0772685,7.79724659 C50.1007633,7.79724659 62.2815102,19.9763389 62.2815102,34.9999992 C62.2815102,50.0251486 50.1009288,62.2027518 35.0772685,62.2027518 Z" id="Shape"></path>
                <polygon id="Shape" points="46.0334547 20.337701 42.7957567 20.337701 42.7957567 25.0974547 34.6952241 16.9980803 18.5161649 33.1773049 20.8049567 35.4660967 34.6952241 21.5758293 48.59939 35.4799952 50.8881818 33.191038 46.0334547 28.3348218"></polygon>
                <polygon id="Shape" points="23.3723811 36.6243084 23.3723811 49.4721853 31.4826758 49.4721853 31.4826758 41.3784365 37.9244837 41.3784365 37.9244837 49.4721853 46.0334547 49.4721853 46.0334547 36.6243084 34.703497 25.1911044"></polygon>
            </g>
        </g>
    </g>
</svg>