<?xml version="1.0" encoding="UTF-8"?>
<svg width="603px" height="171px" viewBox="0 0 603 171" version="1.1" xmlns="http://www.w3.org/2000/svg" xmlns:xlink="http://www.w3.org/1999/xlink">
    <title>leadnhadat-logo</title>
    <g id="Page-1" stroke="none" stroke-width="1" fill="none" fill-rule="evenodd">
        <g id="leadnhadat-logo" fill-rule="nonzero">
            <g id="SvgjsG1023" fill="#FFFFFF">
                <circle id="Oval" cx="85.5" cy="85.5" r="85.5"></circle>
            </g>
            <g id="Group" transform="translate(50.922731, 43.000000)" fill="#2C5438">
                <path d="M35.0772693,0 C15.7462189,0 0.0772692659,15.6702733 0.0772692659,35 C0.0772692659,61.5811231 35.0772693,84.7149126 35.0772693,84.7149126 C35.0772693,84.7149126 70.0772693,61.5811231 70.0772693,35 C70.0772693,15.6702733 54.408318,0 35.0772693,0 Z M35.0772685,62.2027518 C20.0536082,62.2027518 7.87583953,50.0249832 7.87583953,34.9999992 C7.87583953,19.9763389 20.0537737,7.79724659 35.0772685,7.79724659 C50.1007633,7.79724659 62.2815102,19.9763389 62.2815102,34.9999992 C62.2815102,50.0251486 50.1009288,62.2027518 35.0772685,62.2027518 Z" id="Shape"></path>
                <polygon id="Shape" points="46.0334547 20.337701 42.7957567 20.337701 42.7957567 25.0974547 34.6952241 16.9980803 18.5161649 33.1773049 20.8049567 35.4660967 34.6952241 21.5758293 48.59939 35.4799952 50.8881818 33.191038 46.0334547 28.3348218"></polygon>
                <polygon id="Shape" points="23.3723811 36.6243084 23.3723811 49.4721853 31.4826758 49.4721853 31.4826758 41.3784365 37.9244837 41.3784365 37.9244837 49.4721853 46.0334547 49.4721853 46.0334547 36.6243084 34.703497 25.1911044"></polygon>
            </g>
            <g id="SvgjsG1025" transform="translate(188.490495, 54.022824)" fill="#FFFFFF">
                <path d="M5.85551128,61.9771649 C4.94296407,61.9771649 4.15715953,61.6476339 3.49809765,60.9885721 C2.83903577,60.3295102 2.50950484,59.5437057 2.50950484,58.6311584 L2.50950484,5.32319208 C2.50950484,4.41064486 2.83903577,3.62484032 3.49809765,2.96577844 C4.15715953,2.30671657 4.94296407,1.97718563 5.85551128,1.97718563 C6.7680585,1.97718563 7.55386304,2.30671657 8.21292492,2.96577844 C8.87198679,3.62484032 9.20151773,4.41064486 9.20151773,5.32319208 L9.20151773,58.6311584 C9.20151773,59.5437057 8.87198679,60.3295102 8.21292492,60.9885721 C7.55386304,61.6476339 6.7680585,61.9771649 5.85551128,61.9771649 Z M54.2965592,44.1824942 L25.4752764,44.1824942 C25.6780646,45.7541033 26.1470125,47.211644 26.88212,48.5551163 C27.6172275,49.8985886 28.5551267,51.0646211 29.6958072,52.0532139 C30.8364912,53.0418068 32.1292665,53.814937 33.5741329,54.3726048 C35.0189993,54.9302725 36.5525856,55.2091064 38.1748917,55.2091064 C39.138136,55.2091064 40.0126604,55.1330608 40.798465,54.9809696 C41.5842695,54.8288784 42.319377,54.5880673 43.0037874,54.2585364 C43.6881978,53.9290054 44.3726082,53.5234289 45.0570186,53.0418068 C45.7414291,52.5601846 46.4892108,52.0151911 47.3003639,51.4068263 C47.6045463,51.153341 47.921403,50.9378785 48.2509339,50.7604387 C48.5804648,50.582999 49.0240642,50.4942791 49.5817319,50.4942791 C50.5449762,50.4942791 51.3561293,50.8238101 52.0151911,51.4828719 C52.674253,52.1419338 53.003784,52.9277384 53.003784,53.8402856 C53.003784,54.3979533 52.9023898,54.8542269 52.6996016,55.2091064 C52.4968133,55.5639859 52.2686765,55.8935168 52.0151911,56.1976992 C51.2040381,57.1102464 50.2534681,57.9340738 49.1634811,58.6691812 C48.0734942,59.4042887 46.9074616,60.0126535 45.6653835,60.4942757 C44.4233053,60.9758978 43.1558786,61.3434515 41.8631034,61.5969369 C40.5703282,61.8504222 39.3409243,61.9771649 38.1748917,61.9771649 C35.4879472,61.9771649 32.9530938,61.4575199 30.5703316,60.4182301 C28.1875695,59.3789402 26.1089897,57.9720966 24.3345923,56.1976992 C22.560195,54.4233018 21.1533514,52.3573963 20.1140615,49.9999827 C19.0747716,47.6425691 18.5551267,45.12039 18.5551267,42.4334454 C18.5551267,39.7465008 19.0747716,37.2116475 20.1140615,34.8288853 C21.1533514,32.4461231 22.560195,30.3675434 24.3345923,28.593146 C26.1089897,26.8187487 28.1875695,25.411905 30.5703316,24.3726151 C32.9530938,23.3333253 35.4879472,22.8136803 38.1748917,22.8136803 C40.7604422,22.8136803 43.1939014,23.2446054 45.4752695,24.1064555 C47.7566375,24.9683057 49.7845202,26.1977096 51.5589175,27.7946672 C53.3333149,29.3916248 54.7528328,31.2927648 55.8174712,33.4980873 C56.8821096,35.7034097 57.4904744,38.1241947 57.6425656,40.7604422 C57.6932627,41.7743835 57.376406,42.5982109 56.6919956,43.2319242 C56.0075852,43.8656376 55.2091064,44.1824942 54.2965592,44.1824942 L54.2965592,44.1824942 Z M38.1748917,29.5817388 C35.5386442,29.5817388 33.1558821,30.304172 31.0266052,31.7490385 C28.8973284,33.1939049 27.3257193,35.0823706 26.311778,37.4144357 L49.9619599,37.4144357 C48.9987156,35.0316736 47.4397808,33.1305335 45.2851554,31.7110157 C43.1305301,30.2914978 40.7604422,29.5817388 38.1748917,29.5817388 L38.1748917,29.5817388 Z M99.3916006,61.9771649 C98.4283563,61.9771649 97.6172033,61.6476339 96.9581414,60.9885721 C96.2990795,60.3295102 95.9695486,59.5437057 95.9695486,58.6311584 L95.9695486,57.186292 C94.1951512,58.707204 92.2179656,59.8859109 90.0379917,60.7224125 C87.8580178,61.5589141 85.5766498,61.9771649 83.1938876,61.9771649 C80.506943,61.9771649 77.9720896,61.4575199 75.5893275,60.4182301 C73.2065653,59.3789402 71.1279856,57.9720966 69.3535882,56.1976992 C67.5791908,54.4233018 66.1723472,52.3573963 65.1330573,49.9999827 C64.0937675,47.6425691 63.5741225,45.12039 63.5741225,42.4334454 C63.5741225,39.7465008 64.0937675,37.2116475 65.1330573,34.8288853 C66.1723472,32.4461231 67.5791908,30.3675434 69.3535882,28.593146 C71.1279856,26.8187487 73.2065653,25.411905 75.5893275,24.3726151 C77.9720896,23.3333253 80.506943,22.8136803 83.1938876,22.8136803 C85.5766498,22.8136803 87.8580178,23.2319311 90.0379917,24.0684327 C92.2179656,24.9049344 94.1951512,26.0836412 95.9695486,27.6045532 L95.9695486,26.1596868 C95.9695486,25.2471396 96.2990795,24.461335 96.9581414,23.8022731 C97.6172033,23.1432113 98.4283563,22.8136803 99.3916006,22.8136803 C100.304148,22.8136803 101.089952,23.1432113 101.749014,23.8022731 C102.408076,24.461335 102.737607,25.2471396 102.737607,26.1596868 L102.737607,58.6311584 C102.737607,59.5437057 102.408076,60.3295102 101.749014,60.9885721 C101.089952,61.6476339 100.304148,61.9771649 99.3916006,61.9771649 Z M83.1938876,29.5817388 C81.4194902,29.5817388 79.7591613,29.923944 78.2129007,30.6083544 C76.6666402,31.2927648 75.3104936,32.2179863 74.1444611,33.3840189 C72.9784285,34.5500514 72.053207,35.906198 71.3687966,37.4524585 C70.6843862,38.9987191 70.342181,40.659048 70.342181,42.4334454 C70.342181,44.2078428 70.6843862,45.8681717 71.3687966,47.4144323 C72.053207,48.9606928 72.9784285,50.3168394 74.1444611,51.4828719 C75.3104936,52.6489045 76.6666402,53.5614517 78.2129007,54.2205136 C79.7591613,54.8795755 81.4194902,55.2091064 83.1938876,55.2091064 C84.9682849,55.2091064 86.6286139,54.8795755 88.1748745,54.2205136 C89.721135,53.5614517 91.0772816,52.6489045 92.2433141,51.4828719 C93.4093467,50.3168394 94.3218939,48.9606928 94.9809558,47.4144323 C95.6400176,45.8681717 95.9695486,44.2078428 95.9695486,42.4334454 C95.9695486,40.659048 95.6400176,38.9987191 94.9809558,37.4524585 C94.3218939,35.906198 93.4093467,34.5500514 92.2433141,33.3840189 C91.0772816,32.2179863 89.721135,31.2927648 88.1748745,30.6083544 C86.6286139,29.923944 84.9682849,29.5817388 83.1938876,29.5817388 L83.1938876,29.5817388 Z M147.832649,61.9771649 C146.869404,61.9771649 146.058251,61.6476339 145.399189,60.9885721 C144.740127,60.3295102 144.410596,59.5437057 144.410596,58.6311584 L144.410596,57.186292 C142.636199,58.707204 140.659013,59.8859109 138.47904,60.7224125 C136.299066,61.5589141 134.017698,61.9771649 131.634935,61.9771649 C128.947991,61.9771649 126.413138,61.4575199 124.030375,60.4182301 C121.647613,59.3789402 119.569033,57.9720966 117.794636,56.1976992 C116.020239,54.4233018 114.613395,52.3573963 113.574105,49.9999827 C112.534815,47.6425691 112.01517,45.12039 112.01517,42.4334454 C112.01517,39.7465008 112.534815,37.2116475 113.574105,34.8288853 C114.613395,32.4461231 116.020239,30.3675434 117.794636,28.593146 C119.569033,26.8187487 121.647613,25.411905 124.030375,24.3726151 C126.413138,23.3333253 128.947991,22.8136803 131.634935,22.8136803 C134.017698,22.8136803 136.299066,23.2319311 138.47904,24.0684327 C140.659013,24.9049344 142.636199,26.1089897 144.410596,27.6805988 L144.410596,5.32319208 C144.410596,4.41064486 144.740127,3.62484032 145.399189,2.96577844 C146.058251,2.30671657 146.869404,1.97718563 147.832649,1.97718563 C148.745196,1.97718563 149.531,2.30671657 150.190062,2.96577844 C150.849124,3.62484032 151.178655,4.41064486 151.178655,5.32319208 L151.178655,58.6311584 C151.178655,59.5437057 150.849124,60.3295102 150.190062,60.9885721 C149.531,61.6476339 148.745196,61.9771649 147.832649,61.9771649 Z M131.634935,29.5817388 C129.860538,29.5817388 128.200209,29.923944 126.653949,30.6083544 C125.107688,31.2927648 123.751542,32.2179863 122.585509,33.3840189 C121.419476,34.5500514 120.494255,35.906198 119.809845,37.4524585 C119.125434,38.9987191 118.783229,40.659048 118.783229,42.4334454 C118.783229,44.2078428 119.125434,45.8681717 119.809845,47.4144323 C120.494255,48.9606928 121.419476,50.3041651 122.585509,51.4448491 C123.751542,52.5855332 125.107688,53.4980804 126.653949,54.1824908 C128.200209,54.8669012 129.860538,55.2091064 131.634935,55.2091064 C133.358636,55.2091064 135.00629,54.8669012 136.5779,54.1824908 C138.149509,53.4980804 139.505655,52.5855332 140.646339,51.4448491 C141.787023,50.3041651 142.69957,48.9606928 143.383981,47.4144323 C144.068391,45.8681717 144.410596,44.2078428 144.410596,42.4334454 C144.410596,40.659048 144.068391,38.9987191 143.383981,37.4524585 C142.69957,35.906198 141.787023,34.5500514 140.646339,33.3840189 C139.505655,32.2179863 138.149509,31.2927648 136.5779,30.6083544 C135.00629,29.923944 133.358636,29.5817388 131.634935,29.5817388 L131.634935,29.5817388 Z M170.418192,25.0950484 C172.800954,23.5741363 175.361156,22.8136803 178.098798,22.8136803 C180.025286,22.8136803 181.850381,23.1812341 183.574081,23.9163415 C185.297781,24.651449 186.806019,25.6653904 188.098794,26.9581656 C189.39157,28.2509408 190.405511,29.7591786 191.140618,31.4828789 C191.875726,33.2065791 192.24328,35.0316736 192.24328,36.9581621 L192.24328,58.6311584 C192.24328,59.5437057 191.913749,60.3295102 191.254687,60.9885721 C190.595625,61.6476339 189.80982,61.9771649 188.897273,61.9771649 C187.934029,61.9771649 187.122876,61.6476339 186.463814,60.9885721 C185.804752,60.3295102 185.475221,59.5437057 185.475221,58.6311584 L185.475221,36.9581621 C185.475221,35.9442208 185.285107,34.9936508 184.904879,34.1064521 C184.524651,33.2192534 183.992332,32.4334489 183.307921,31.7490385 C182.623511,31.064628 181.837706,30.5323088 180.950508,30.1520808 C180.063309,29.7718528 179.112739,29.5817388 178.098798,29.5817388 C177.084856,29.5817388 176.121612,29.7718528 175.209065,30.1520808 C174.296518,30.5323088 173.510713,31.064628 172.851651,31.7490385 C172.192589,32.4334489 171.672944,33.2192534 171.292716,34.1064521 C170.912488,34.9936508 170.722374,35.9442208 170.722374,36.9581621 C170.722374,37.1102533 170.671677,37.3383901 170.570283,37.6425725 L170.570283,58.6311584 C170.570283,59.5437057 170.240752,60.3295102 169.58169,60.9885721 C168.922629,61.6476339 168.136824,61.9771649 167.224277,61.9771649 C166.261033,61.9771649 165.449879,61.6476339 164.790818,60.9885721 C164.131756,60.3295102 163.802225,59.5437057 163.802225,58.6311584 L163.802225,25.7034132 C163.802225,24.7401689 164.131756,23.9290158 164.790818,23.2699539 C165.449879,22.6108921 166.261033,22.2813611 167.224277,22.2813611 C169.049371,22.2813611 170.11401,23.2192569 170.418192,25.0950484 L170.418192,25.0950484 Z M231.710947,61.9771649 C230.747702,61.9771649 229.936549,61.6476339 229.277487,60.9885721 C228.618425,60.3295102 228.288894,59.5437057 228.288894,58.6311584 L228.288894,38.707211 C228.288894,37.4397843 228.048083,36.2610775 227.566461,35.1710905 C227.084839,34.0811036 226.425777,33.1178593 225.589276,32.2813577 C224.752774,31.444856 223.78953,30.7857942 222.699543,30.304172 C221.609556,29.8225499 220.430849,29.5817388 219.163422,29.5817388 C217.946693,29.5817388 216.78066,29.8225499 215.665325,30.304172 C214.549989,30.7857942 213.586745,31.444856 212.775592,32.2813577 C211.964439,33.1178593 211.318051,34.0811036 210.836429,35.1710905 C210.354807,36.2610775 210.113996,37.4397843 210.113996,38.707211 C210.113996,38.9099992 210.063299,39.1127875 209.961905,39.3155758 L209.961905,58.6311584 C209.961905,59.5437057 209.632374,60.3295102 208.973312,60.9885721 C208.31425,61.6476339 207.528445,61.9771649 206.615898,61.9771649 C205.652654,61.9771649 204.841501,61.6476339 204.182439,60.9885721 C203.523377,60.3295102 203.193846,59.5437057 203.193846,58.6311584 L203.193846,5.32319208 C203.193846,4.41064486 203.523377,3.62484032 204.182439,2.96577844 C204.841501,2.30671657 205.652654,1.97718563 206.615898,1.97718563 C207.528445,1.97718563 208.31425,2.30671657 208.973312,2.96577844 C209.632374,3.62484032 209.961905,4.41064486 209.961905,5.32319208 L209.961905,25.7794588 C211.280028,24.8162145 212.737569,24.081107 214.334527,23.5741363 C215.931484,23.0671657 217.541116,22.8136803 219.163422,22.8136803 C221.343396,22.8136803 223.396627,23.2319311 225.323116,24.0684327 C227.249605,24.9049344 228.935282,26.0456184 230.380148,27.4904848 C231.825015,28.9353512 232.965699,30.6210287 233.802201,32.5475173 C234.638702,34.4740058 235.056953,36.5272371 235.056953,38.707211 L235.056953,58.6311584 C235.056953,59.5437057 234.727422,60.3295102 234.06836,60.9885721 C233.409298,61.6476339 232.623494,61.9771649 231.710947,61.9771649 L231.710947,61.9771649 Z M278.478991,61.9771649 C277.515747,61.9771649 276.704594,61.6476339 276.045532,60.9885721 C275.38647,60.3295102 275.056939,59.5437057 275.056939,58.6311584 L275.056939,57.186292 C273.282542,58.707204 271.305356,59.8859109 269.125382,60.7224125 C266.945408,61.5589141 264.66404,61.9771649 262.281278,61.9771649 C259.594334,61.9771649 257.05948,61.4575199 254.676718,60.4182301 C252.293956,59.3789402 250.215376,57.9720966 248.440979,56.1976992 C246.666581,54.4233018 245.259738,52.3573963 244.220448,49.9999827 C243.181158,47.6425691 242.661513,45.12039 242.661513,42.4334454 C242.661513,39.7465008 243.181158,37.2116475 244.220448,34.8288853 C245.259738,32.4461231 246.666581,30.3675434 248.440979,28.593146 C250.215376,26.8187487 252.293956,25.411905 254.676718,24.3726151 C257.05948,23.3333253 259.594334,22.8136803 262.281278,22.8136803 C264.66404,22.8136803 266.945408,23.2319311 269.125382,24.0684327 C271.305356,24.9049344 273.282542,26.0836412 275.056939,27.6045532 L275.056939,26.1596868 C275.056939,25.2471396 275.38647,24.461335 276.045532,23.8022731 C276.704594,23.1432113 277.515747,22.8136803 278.478991,22.8136803 C279.391538,22.8136803 280.177343,23.1432113 280.836405,23.8022731 C281.495467,24.461335 281.824998,25.2471396 281.824998,26.1596868 L281.824998,58.6311584 C281.824998,59.5437057 281.495467,60.3295102 280.836405,60.9885721 C280.177343,61.6476339 279.391538,61.9771649 278.478991,61.9771649 Z M262.281278,29.5817388 C260.506881,29.5817388 258.846552,29.923944 257.300291,30.6083544 C255.754031,31.2927648 254.397884,32.2179863 253.231852,33.3840189 C252.065819,34.5500514 251.140598,35.906198 250.456187,37.4524585 C249.771777,38.9987191 249.429572,40.659048 249.429572,42.4334454 C249.429572,44.2078428 249.771777,45.8681717 250.456187,47.4144323 C251.140598,48.9606928 252.065819,50.3168394 253.231852,51.4828719 C254.397884,52.6489045 255.754031,53.5614517 257.300291,54.2205136 C258.846552,54.8795755 260.506881,55.2091064 262.281278,55.2091064 C264.055676,55.2091064 265.716004,54.8795755 267.262265,54.2205136 C268.808526,53.5614517 270.164672,52.6489045 271.330705,51.4828719 C272.496737,50.3168394 273.409284,48.9606928 274.068346,47.4144323 C274.727408,45.8681717 275.056939,44.2078428 275.056939,42.4334454 C275.056939,40.659048 274.727408,38.9987191 274.068346,37.4524585 C273.409284,35.906198 272.496737,34.5500514 271.330705,33.3840189 C270.164672,32.2179863 268.808526,31.2927648 267.262265,30.6083544 C265.716004,29.923944 264.055676,29.5817388 262.281278,29.5817388 L262.281278,29.5817388 Z M326.920039,61.9771649 C325.956795,61.9771649 325.145642,61.6476339 324.48658,60.9885721 C323.827518,60.3295102 323.497987,59.5437057 323.497987,58.6311584 L323.497987,57.186292 C321.72359,58.707204 319.746404,59.8859109 317.56643,60.7224125 C315.386456,61.5589141 313.105088,61.9771649 310.722326,61.9771649 C308.035381,61.9771649 305.500528,61.4575199 303.117766,60.4182301 C300.735004,59.3789402 298.656424,57.9720966 296.882027,56.1976992 C295.107629,54.4233018 293.700786,52.3573963 292.661496,49.9999827 C291.622206,47.6425691 291.102561,45.12039 291.102561,42.4334454 C291.102561,39.7465008 291.622206,37.2116475 292.661496,34.8288853 C293.700786,32.4461231 295.107629,30.3675434 296.882027,28.593146 C298.656424,26.8187487 300.735004,25.411905 303.117766,24.3726151 C305.500528,23.3333253 308.035381,22.8136803 310.722326,22.8136803 C313.105088,22.8136803 315.386456,23.2319311 317.56643,24.0684327 C319.746404,24.9049344 321.72359,26.1089897 323.497987,27.6805988 L323.497987,5.32319208 C323.497987,4.41064486 323.827518,3.62484032 324.48658,2.96577844 C325.145642,2.30671657 325.956795,1.97718563 326.920039,1.97718563 C327.832586,1.97718563 328.618391,2.30671657 329.277453,2.96577844 C329.936515,3.62484032 330.266046,4.41064486 330.266046,5.32319208 L330.266046,58.6311584 C330.266046,59.5437057 329.936515,60.3295102 329.277453,60.9885721 C328.618391,61.6476339 327.832586,61.9771649 326.920039,61.9771649 Z M310.722326,29.5817388 C308.947929,29.5817388 307.2876,29.923944 305.741339,30.6083544 C304.195079,31.2927648 302.838932,32.2179863 301.6729,33.3840189 C300.506867,34.5500514 299.581645,35.906198 298.897235,37.4524585 C298.212825,38.9987191 297.870619,40.659048 297.870619,42.4334454 C297.870619,44.2078428 298.212825,45.8681717 298.897235,47.4144323 C299.581645,48.9606928 300.506867,50.3041651 301.6729,51.4448491 C302.838932,52.5855332 304.195079,53.4980804 305.741339,54.1824908 C307.2876,54.8669012 308.947929,55.2091064 310.722326,55.2091064 C312.446026,55.2091064 314.093681,54.8669012 315.66529,54.1824908 C317.236899,53.4980804 318.593046,52.5855332 319.73373,51.4448491 C320.874414,50.3041651 321.786961,48.9606928 322.471371,47.4144323 C323.155782,45.8681717 323.497987,44.2078428 323.497987,42.4334454 C323.497987,40.659048 323.155782,38.9987191 322.471371,37.4524585 C321.786961,35.906198 320.874414,34.5500514 319.73373,33.3840189 C318.593046,32.2179863 317.236899,31.2927648 315.66529,30.6083544 C314.093681,29.923944 312.446026,29.5817388 310.722326,29.5817388 L310.722326,29.5817388 Z M375.361087,61.9771649 C374.397843,61.9771649 373.58669,61.6476339 372.927628,60.9885721 C372.268566,60.3295102 371.939035,59.5437057 371.939035,58.6311584 L371.939035,57.186292 C370.164638,58.707204 368.187452,59.8859109 366.007478,60.7224125 C363.827504,61.5589141 361.546136,61.9771649 359.163374,61.9771649 C356.476429,61.9771649 353.941576,61.4575199 351.558814,60.4182301 C349.176052,59.3789402 347.097472,57.9720966 345.323075,56.1976992 C343.548677,54.4233018 342.141834,52.3573963 341.102544,49.9999827 C340.063254,47.6425691 339.543609,45.12039 339.543609,42.4334454 C339.543609,39.7465008 340.063254,37.2116475 341.102544,34.8288853 C342.141834,32.4461231 343.548677,30.3675434 345.323075,28.593146 C347.097472,26.8187487 349.176052,25.411905 351.558814,24.3726151 C353.941576,23.3333253 356.476429,22.8136803 359.163374,22.8136803 C361.546136,22.8136803 363.827504,23.2319311 366.007478,24.0684327 C368.187452,24.9049344 370.164638,26.0836412 371.939035,27.6045532 L371.939035,26.1596868 C371.939035,25.2471396 372.268566,24.461335 372.927628,23.8022731 C373.58669,23.1432113 374.397843,22.8136803 375.361087,22.8136803 C376.273634,22.8136803 377.059439,23.1432113 377.718501,23.8022731 C378.377562,24.461335 378.707093,25.2471396 378.707093,26.1596868 L378.707093,58.6311584 C378.707093,59.5437057 378.377562,60.3295102 377.718501,60.9885721 C377.059439,61.6476339 376.273634,61.9771649 375.361087,61.9771649 Z M359.163374,29.5817388 C357.388977,29.5817388 355.728648,29.923944 354.182387,30.6083544 C352.636127,31.2927648 351.27998,32.2179863 350.113947,33.3840189 C348.947915,34.5500514 348.022693,35.906198 347.338283,37.4524585 C346.653873,38.9987191 346.311667,40.659048 346.311667,42.4334454 C346.311667,44.2078428 346.653873,45.8681717 347.338283,47.4144323 C348.022693,48.9606928 348.947915,50.3168394 350.113947,51.4828719 C351.27998,52.6489045 352.636127,53.5614517 354.182387,54.2205136 C355.728648,54.8795755 357.388977,55.2091064 359.163374,55.2091064 C360.937771,55.2091064 362.5981,54.8795755 364.144361,54.2205136 C365.690621,53.5614517 367.046768,52.6489045 368.2128,51.4828719 C369.378833,50.3168394 370.29138,48.9606928 370.950442,47.4144323 C371.609504,45.8681717 371.939035,44.2078428 371.939035,42.4334454 C371.939035,40.659048 371.609504,38.9987191 370.950442,37.4524585 C370.29138,35.906198 369.378833,34.5500514 368.2128,33.3840189 C367.046768,32.2179863 365.690621,31.2927648 364.144361,30.6083544 C362.5981,29.923944 360.937771,29.5817388 359.163374,29.5817388 L359.163374,29.5817388 Z M409.049288,29.5817388 L402.889595,29.5817388 L402.889595,58.6311584 C402.889595,59.5437057 402.560064,60.3295102 401.901002,60.9885721 C401.24194,61.6476339 400.430787,61.9771649 399.467543,61.9771649 C398.554995,61.9771649 397.769191,61.6476339 397.110129,60.9885721 C396.451067,60.3295102 396.121536,59.5437057 396.121536,58.6311584 L396.121536,29.5817388 L389.885797,29.5817388 C388.97325,29.5817388 388.187445,29.2522079 387.528383,28.593146 C386.869321,27.9340841 386.53979,27.1482796 386.53979,26.2357324 C386.53979,25.2724881 386.869321,24.461335 387.528383,23.8022731 C388.187445,23.1432113 388.97325,22.8136803 389.885797,22.8136803 L396.121536,22.8136803 L396.121536,11.634977 C396.121536,10.6717327 396.451067,9.87325387 397.110129,9.23954053 C397.769191,8.60582719 398.554995,8.28897052 399.467543,8.28897052 C400.430787,8.28897052 401.24194,8.60582719 401.901002,9.23954053 C402.560064,9.87325387 402.889595,10.6717327 402.889595,11.634977 L402.889595,22.8136803 L409.049288,22.8136803 C410.012533,22.8136803 410.823686,23.1432113 411.482747,23.8022731 C412.141809,24.461335 412.47134,25.2724881 412.47134,26.2357324 C412.47134,27.1482796 412.141809,27.9340841 411.482747,28.593146 C410.823686,29.2522079 410.012533,29.5817388 409.049288,29.5817388 Z" id="Shape"></path>
            </g>
        </g>
    </g>
</svg>